<?xml version="1.0" encoding="utf-8"?>
<!-- Generator: Adobe Illustrator 26.0.1, SVG Export Plug-In . SVG Version: 6.00 Build 0)  -->
<svg version="1.1" id="Layer_1" xmlns="http://www.w3.org/2000/svg" xmlns:xlink="http://www.w3.org/1999/xlink" x="0px" y="0px"
	 viewBox="0 0 24 24" style="enable-background:new 0 0 24 24;" xml:space="preserve">
<path d="M12,5.8c-3.4,0-6.2,2.8-6.2,6.2s2.8,6.2,6.2,6.2s6.2-2.8,6.2-6.2S15.4,5.8,12,5.8z M12,16c-2.2,0-4-1.8-4-4c0-2.2,1.8-4,4-4
	c0,0,0,0,0,0c2.2,0,4,1.8,4,4C16,14.2,14.2,16,12,16z"/>
<circle cx="18.4" cy="5.6" r="1.4"/>
<path d="M23.4,4.1c-0.6-1.6-1.9-2.9-3.5-3.5C18.9,0.3,18,0.1,17,0.1C15.7,0,15.3,0,12,0S8.4,0,7.1,0.1c-1,0-2,0.2-2.9,0.6
	C2.6,1.3,1.3,2.5,0.7,4.1C0.3,5.1,0.1,6,0.1,7C0.1,8.3,0,8.7,0,12c0,3.2,0,3.7,0.1,4.9c0,1,0.2,2,0.6,2.9c0.6,1.6,1.9,2.9,3.5,3.5
	c0.9,0.4,1.9,0.6,2.9,0.6C8.4,24,8.8,24,12,24s3.7,0,4.9-0.1c1,0,2-0.2,2.9-0.6c1.6-0.6,2.9-1.9,3.5-3.5c0.3-0.9,0.5-1.9,0.6-2.9
	C24,15.7,24,15.3,24,12s0-3.7-0.1-4.9C23.9,6.1,23.7,5.1,23.4,4.1z M21.8,16.8c0,0.8-0.1,1.5-0.4,2.2c-0.4,1-1.2,1.9-2.3,2.3
	c-0.7,0.3-1.5,0.4-2.2,0.4c-1.3,0.1-1.6,0.1-4.9,0.1c-3.2,0-3.6,0-4.9-0.1c-0.8,0-1.5-0.1-2.2-0.4c-1.1-0.4-1.9-1.2-2.3-2.3
	c-0.3-0.7-0.4-1.5-0.4-2.2c-0.1-1.3-0.1-1.6-0.1-4.9c0-3.2,0-3.6,0.1-4.9c0-0.8,0.1-1.5,0.4-2.2C3,3.8,3.8,3,4.9,2.6
	c0.7-0.3,1.5-0.4,2.2-0.4C8.4,2.1,8.7,2.1,12,2.1s3.6,0,4.9,0.1c0.8,0,1.5,0.1,2.2,0.4c1,0.4,1.9,1.2,2.3,2.3
	c0.3,0.7,0.4,1.5,0.4,2.2c0.1,1.3,0.1,1.6,0.1,4.9C21.8,15.2,21.8,15.5,21.8,16.8L21.8,16.8L21.8,16.8z"/>
</svg>
