<?xml version="1.0" encoding="utf-8"?>
<!-- Generator: Adobe Illustrator 26.0.1, SVG Export Plug-In . SVG Version: 6.00 Build 0)  -->
<svg version="1.1" id="Layer_1" xmlns="http://www.w3.org/2000/svg" xmlns:xlink="http://www.w3.org/1999/xlink" x="0px" y="0px"
	 viewBox="0 0 24 24" style="enable-background:new 0 0 24 24;" xml:space="preserve">
<path d="M22.9,0.1H1.1c-0.5,0-0.9,0.4-0.9,0.9v21.8c0,0.5,0.4,0.9,0.9,0.9h21.8c0.5,0,0.9-0.4,0.9-0.9V1.1
	C23.9,0.6,23.4,0.1,22.9,0.1z M7.2,20.4H3.7V9h3.5V20.4L7.2,20.4z M5.4,7.5c-1.1,0-2-0.9-2-2s0.9-2,2-2s2,0.9,2,2v0
	C7.5,6.6,6.5,7.5,5.4,7.5z M20.4,20.4h-3.5v-5.5c0-1.3,0-3-1.8-3c-1.8,0-2.1,1.4-2.1,2.9v5.6H9.4V9h3.4v1.5h0
	c0.5-0.9,1.6-1.8,3.3-1.8c3.6,0,4.2,2.3,4.2,5.4L20.4,20.4L20.4,20.4z"/>
</svg>
