<svg width="56" height="29" viewBox="0 0 56 29" fill="none" xmlns="http://www.w3.org/2000/svg">
<path d="M6.56815 19.2142C6.27341 18.397 5.99454 17.5669 5.66302 16.7533C5.51914 16.3815 5.33205 16.0052 5.07983 15.6951C4.73707 15.2737 4.03702 15.209 3.57829 15.4896C3.25177 15.6891 2.97818 16.2948 3.2075 16.5443C4.10388 17.5326 4.05185 18.8168 4.36218 19.978C4.6247 20.9667 4.72265 21.9967 4.98517 22.9854C5.17347 23.7042 5.40356 24.4419 5.77526 25.0776C6.66148 26.5894 8.43195 26.8008 9.54987 25.4952C11.099 23.6803 12.5612 21.7908 13.7045 19.6718C13.9221 19.2571 14.1073 18.8026 14.1836 18.3442C14.2996 17.6421 13.4158 17.0266 12.8025 17.3934C12.2896 17.7048 11.8434 18.147 11.3922 18.5669C10.6995 19.2095 10.0391 19.892 9.30222 20.6103C9.10969 20.3573 8.91325 20.2132 8.91367 20.0676C8.9944 17.5842 9.4535 15.1763 10.551 12.9361C11.4658 11.0558 12.7611 9.51346 14.7453 8.63942C17.5382 7.41149 20.5104 7.9797 22.5967 10.2198C22.826 10.4692 23.017 10.7366 23.1723 10.9274C23.7808 10.9609 23.9173 10.6253 23.8649 10.2847C23.7467 9.52216 23.3671 8.89299 22.7881 8.35984C20.0614 5.90085 16.0268 5.60214 12.9122 7.62022C11.1002 8.8034 9.70901 10.3577 8.77091 12.323C7.99967 13.9411 7.51883 15.6402 7.18565 17.3908C7.06566 17.9904 6.97451 18.5931 6.86893 19.1942C6.78093 19.1997 6.67852 19.2037 6.56815 19.2142Z" fill="black"/>
<path d="M26.7368 19.5005C26.6246 19.4853 26.4528 19.4449 26.2217 19.3792C26.068 19.164 25.9402 18.8838 25.8384 18.5384C25.7494 18.1834 25.6907 17.8153 25.6624 17.4342C25.6468 17.0434 25.6642 16.6628 25.7144 16.2924C25.7774 15.9123 25.8904 15.5846 26.0535 15.3095C26.055 15.2983 26.1238 15.1704 26.2599 14.926C26.4071 14.683 26.5916 14.3765 26.8133 14.0065C27.0365 13.6252 27.2874 13.2077 27.5662 12.7539C27.8465 12.2889 28.1252 11.8352 28.4025 11.3926C28.6797 10.9501 28.9396 10.5509 29.1822 10.1952C29.4376 9.82969 29.6527 9.55021 29.8275 9.35672C29.9499 9.21327 30.0602 9.07391 30.1586 8.93864C30.2682 8.80489 30.3707 8.68161 30.466 8.56879C30.6169 8.38348 30.7542 8.21349 30.8781 8.05881C31.0147 7.89443 31.1539 7.75327 31.2957 7.63531C31.4502 7.50765 31.6128 7.40397 31.7837 7.32426C31.9561 7.23332 32.1598 7.16379 32.395 7.11567C32.5221 7.19007 32.6316 7.26779 32.7235 7.34885C32.8169 7.41868 32.8968 7.50382 32.9632 7.60429L32.9817 7.84687C32.9935 7.92849 33.0196 7.98919 33.0599 8.02895C33.113 8.05902 33.1564 8.07633 33.1901 8.0809C33.3314 8.13437 33.4496 8.19041 33.5445 8.24901C33.6522 8.29792 33.767 8.33635 33.889 8.36433C33.9247 8.43777 33.9549 8.51045 33.9794 8.58237C34.0152 8.65581 34.0517 8.72364 34.089 8.78586C34.2694 9.14185 34.412 9.48128 34.5168 9.80416C34.6216 10.127 34.5767 10.4582 34.382 10.7976L34.3737 10.9851C34.4192 11.0713 34.4374 11.1481 34.4282 11.2154C34.4191 11.2828 34.3949 11.3767 34.3557 11.4971C34.3323 11.5854 34.3074 11.6849 34.2809 11.7956C34.2672 11.8966 34.2688 12.0112 34.2858 12.1392L34.3854 12.2899C34.5528 12.4041 34.7207 12.4726 34.8891 12.4954C35.1136 12.5259 35.3225 12.5028 35.5158 12.4261C35.7091 12.3494 35.8912 12.2712 36.0621 12.1915C36.1977 12.1185 36.3199 12.0607 36.4285 12.0183C36.5484 11.9774 36.6603 11.9526 36.7644 11.9438C37.0306 11.7513 37.2705 11.5838 37.4842 11.4413C37.7106 11.2891 37.9426 11.1377 38.1803 10.987C38.6286 10.7163 39.0686 10.4216 39.5005 10.1029C39.934 9.77303 40.301 9.34268 40.6017 8.81186C40.7358 8.75003 40.8814 8.72978 41.0386 8.75109C41.1957 8.77241 41.3483 8.8274 41.4964 8.91607C41.6459 8.99352 41.7939 9.08219 41.9404 9.18208C41.971 9.2091 41.9968 9.22974 42.0177 9.24401C42.0499 9.25981 42.0813 9.28121 42.1119 9.30823C42.0952 9.43171 42.1305 9.55081 42.2178 9.66555C42.2678 9.71806 42.3033 9.75145 42.3242 9.76572C42.3452 9.77999 42.3661 9.79427 42.387 9.80854C42.4692 9.87684 42.5353 9.93725 42.5854 9.98977C42.6466 10.0438 42.6888 10.1124 42.7118 10.1955C42.7717 10.5123 42.9081 10.7709 43.121 10.9713C43.0818 11.0917 43.0706 11.2159 43.0876 11.344C43.106 11.4608 43.1301 11.5784 43.1598 11.6967C43.1761 11.7447 43.1869 11.7919 43.192 11.8383C43.1987 11.8735 43.2094 11.9207 43.2242 11.9798L42.8584 11.8959L42.8586 12.2732C42.8664 12.4686 42.8207 12.6796 42.7213 12.9062C42.6332 13.1343 42.5408 13.3104 42.4439 13.4344C42.4207 13.7742 42.3954 14.0452 42.368 14.2472C42.3421 14.4381 42.3065 14.6161 42.2612 14.7815C42.2159 14.9468 42.1545 15.1043 42.0771 15.2538C42.0124 15.3936 41.9293 15.5424 41.8279 15.7001C41.7571 16.5593 41.5503 17.3258 41.2074 17.9995C40.8757 18.6747 40.5277 19.302 40.1633 19.8813C40.119 19.9553 40.0754 20.0237 40.0326 20.0865C39.9898 20.1493 39.9526 20.2128 39.921 20.2772C39.793 20.2941 39.6754 20.3181 39.5683 20.3493C39.4611 20.3805 39.3589 20.4181 39.2615 20.4621C39.1273 20.5239 38.9947 20.5745 38.8636 20.6139C38.734 20.642 38.6019 20.647 38.4672 20.6287C37.9817 20.1627 37.7932 19.4455 37.9017 18.4771C38.0214 17.5102 38.3958 16.3092 39.0249 14.8741C39.111 14.8286 39.1561 14.749 39.1601 14.6352L39.1853 14.45L39.0192 14.4103C38.963 14.4027 38.9118 14.4015 38.8653 14.4066C38.8189 14.4117 38.7784 14.4577 38.7438 14.5444C38.3495 14.7539 37.9201 14.97 37.4555 15.1928C37.0036 15.4059 36.5372 15.5998 36.0562 15.7746C35.5767 15.9382 35.0906 16.0666 34.5978 16.1598C34.1178 16.2433 33.6589 16.2554 33.2211 16.196C32.0985 16.0437 31.3287 15.3563 30.9115 14.1337L30.8011 13.81L30.5961 14.0566C30.5549 14.1081 30.4779 14.212 30.3652 14.3682C30.2653 14.5147 30.156 14.6885 30.0373 14.8896C29.9298 15.0922 29.8271 15.3012 29.7293 15.5166C29.6428 15.7335 29.5993 15.9277 29.5989 16.0991C29.4474 16.2043 29.2937 16.3263 29.1377 16.4652C28.9929 16.6056 28.8787 16.7731 28.7952 16.9675C28.7651 17.0206 28.7519 17.0759 28.7555 17.1336C28.7606 17.18 28.7706 17.2328 28.7855 17.292C28.7636 17.369 28.7335 17.4221 28.6953 17.4512C28.657 17.4803 28.6132 17.5087 28.5637 17.5363C28.5 17.5848 28.4355 17.6389 28.3702 17.6986C28.3065 17.7472 28.2468 17.8077 28.1912 17.8801C28.1597 17.9445 28.1329 18.0151 28.111 18.0922C28.0907 18.158 28.0711 18.2182 28.0522 18.2728C28.0355 18.3963 28.0072 18.4782 27.9675 18.5186C27.8232 18.7391 27.6956 18.9218 27.5844 19.0668C27.4861 19.202 27.3923 19.3036 27.303 19.3716C27.2138 19.4395 27.1228 19.4786 27.0299 19.4888C26.9468 19.5119 26.8491 19.5158 26.7368 19.5005ZM43.0614 20.8918C42.9838 20.7898 42.9309 20.674 42.9028 20.5444C42.8858 20.4164 42.8097 20.3032 42.6745 20.2048C42.6749 20.0334 42.6671 19.838 42.6511 19.6186C42.6479 19.3895 42.639 19.1597 42.6246 18.9291C42.6229 18.6888 42.626 18.4549 42.634 18.2273C42.6548 17.9901 42.6949 17.7783 42.7545 17.592C42.7907 17.4941 42.8373 17.4032 42.8944 17.3195C42.9627 17.2373 43.0246 17.16 43.0802 17.0875C43.1485 17.0053 43.1999 16.9208 43.2346 16.8341C43.2804 16.7488 43.2982 16.6598 43.288 16.5669C43.3568 16.5648 43.4007 16.5365 43.4195 16.4819C43.4511 16.4176 43.5103 16.4028 43.597 16.4374C43.7091 16.2011 43.8245 15.9824 43.9432 15.7813C44.062 15.5802 44.1856 15.3855 44.314 15.1971C44.4424 15.0088 44.5709 14.8204 44.6993 14.6321C44.8405 14.434 44.9735 14.212 45.0983 13.966C44.9318 13.7605 44.8174 13.5506 44.755 13.3364C44.7054 13.1124 44.6726 12.8908 44.6566 12.6714C44.6406 12.452 44.6359 12.2342 44.6424 12.0179C44.6504 11.7903 44.6359 11.5597 44.599 11.3261C44.7611 11.1423 44.946 11.0016 45.1535 10.904C45.3626 10.7952 45.5848 10.7167 45.8199 10.6686C46.0679 10.6108 46.3296 10.5777 46.6051 10.5693C46.8821 10.5497 47.1767 10.5268 47.4889 10.5006C48.0506 10.4053 48.5508 10.3417 48.9895 10.3097C49.4298 10.2666 49.8558 10.2443 50.2675 10.243C50.6808 10.2305 51.1093 10.2314 51.5532 10.2459C51.9986 10.2492 52.5144 10.2391 53.1006 10.2157C53.1073 10.2509 53.1218 10.2701 53.1443 10.2731C53.1779 10.2777 53.2172 10.283 53.2621 10.2891C53.2851 10.3722 53.3415 10.4199 53.4314 10.4321C53.4359 10.3984 53.4341 10.3696 53.4259 10.3456C53.4305 10.3119 53.4343 10.2839 53.4374 10.2614C53.4598 10.2645 53.4871 10.2739 53.5193 10.2897C53.5626 10.307 53.5948 10.3228 53.6157 10.3371C53.6479 10.3528 53.6759 10.3567 53.6999 10.3485C53.7254 10.3291 53.7363 10.2905 53.7327 10.2329C53.8355 10.4869 53.9828 10.7069 54.1748 10.893C54.3683 11.0679 54.5865 11.229 54.8294 11.3762C54.827 11.4788 54.8171 11.5517 54.7997 11.5951C54.7937 11.64 54.782 11.6842 54.7646 11.7275C54.7488 11.7597 54.7371 11.8038 54.7295 11.86C54.7234 11.9049 54.7255 11.9737 54.7358 12.0666C54.5151 12.3453 54.2754 12.5529 54.0169 12.6893C53.7695 12.8272 53.5107 12.9236 53.2403 12.9783C52.9699 13.0331 52.6858 13.0632 52.3878 13.0685C52.1011 13.0753 51.8024 13.0862 51.4917 13.1013C51.1938 13.1066 50.8871 13.1336 50.5719 13.1823C50.2566 13.231 49.9409 13.3253 49.6247 13.4653C49.5394 13.4195 49.4567 13.3968 49.3766 13.3974C49.3093 13.3883 49.2348 13.3896 49.1532 13.4014C49.0716 13.4132 48.9787 13.4234 48.8746 13.4322C48.7818 13.4425 48.6695 13.4272 48.5379 13.3865C48.4374 13.4529 48.3232 13.4946 48.1951 13.5115C48.0783 13.5299 47.9559 13.5476 47.8278 13.5646C47.8672 13.6956 47.8729 13.8222 47.8449 13.9441C47.8282 14.0676 47.8306 14.1765 47.852 14.2709C48.3174 14.3797 48.8394 14.4506 49.418 14.4833C49.9981 14.5048 50.5647 14.5417 51.1178 14.5938C51.1214 14.6515 51.1104 14.69 51.0849 14.7094C51.0594 14.7288 51.0429 14.7666 51.0353 14.8227C51.1272 14.9038 51.2112 15.0009 51.2873 15.1141C51.3634 15.2273 51.4395 15.3405 51.5156 15.4537C51.6044 15.5572 51.6948 15.6495 51.7867 15.7306C51.8801 15.8004 51.9949 15.8388 52.1311 15.8459C52.172 15.9658 52.1953 16.089 52.201 16.2155C52.2067 16.342 52.1724 16.4688 52.098 16.5959C51.8537 16.7114 51.6142 16.8332 51.3796 16.9615C51.1466 17.0785 50.9038 17.1827 50.6513 17.2742C50.4101 17.3672 50.1494 17.4348 49.8693 17.4768C49.5893 17.5188 49.2928 17.5129 48.98 17.4591C48.9239 17.4514 48.8734 17.4446 48.8285 17.4385C48.7948 17.4339 48.753 17.4054 48.7029 17.3529C48.5831 17.3938 48.4285 17.3957 48.2392 17.3586C48.0626 17.3118 47.9088 17.308 47.7777 17.3474C47.6282 17.27 47.4467 17.2168 47.2335 17.1879C47.0314 17.1604 46.8556 17.108 46.7061 17.0306C46.4644 17.295 46.2317 17.5778 46.008 17.879C45.7857 18.169 45.5829 18.4844 45.3995 18.8253C45.8506 18.9551 46.2284 19.035 46.533 19.0648C46.8376 19.0947 47.1269 19.1111 47.4009 19.114C47.6749 19.1168 47.9545 19.1205 48.2397 19.1249C48.5361 19.1308 48.8912 19.1675 49.305 19.2351C49.6039 19.1384 49.936 19.092 50.3013 19.0958C50.6794 19.09 51.0324 19.0578 51.3604 18.9994C51.4681 19.0483 51.5544 19.1286 51.6193 19.2403C51.6857 19.3408 51.7457 19.4461 51.7993 19.5563C51.8657 19.6567 51.9336 19.746 52.0031 19.824C52.0725 19.902 52.1705 19.9381 52.297 19.9324C52.3455 19.9962 52.3701 20.0681 52.3707 20.1482C52.3824 20.2298 52.3894 20.3051 52.3915 20.3739C52.4048 20.4443 52.4252 20.5043 52.4528 20.5537C52.4819 20.592 52.5421 20.6116 52.6335 20.6125C52.3608 21.0214 52.0738 21.3254 51.7724 21.5246C51.4822 21.7253 51.1597 21.8702 50.8046 21.9592C50.4623 22.0385 50.079 22.0837 49.6545 22.0947C49.2428 22.096 48.7782 22.1073 48.2609 22.1286C48.1344 22.1343 48.0278 22.1198 47.941 22.0852C47.867 22.0409 47.7851 22.0126 47.6953 22.0004C47.3734 22.0139 46.9897 22.019 46.5443 22.0158C46.1101 22.0141 45.6749 21.9779 45.2386 21.9073C44.8024 21.8367 44.389 21.7234 43.9986 21.5676C43.6082 21.4118 43.2958 21.1865 43.0614 20.8918Z" fill="black"/>
</svg>
